<?xml version="1.0" encoding="UTF-8" ?>
<!DOCTYPE svg PUBLIC "-//W3C//DTD SVG 1.1//EN" "http://www.w3.org/Graphics/SVG/1.1/DTD/svg11.dtd">
<svg width="637pt" height="136pt" viewBox="0 0 637 136" version="1.1" xmlns="http://www.w3.org/2000/svg">
<path fill="#ffffff" d=" M 0.00 0.00 L 637.00 0.00 L 637.00 136.00 L 0.00 136.00 L 0.00 0.00 Z" />
<path fill="#4d4d4d" d=" M 540.30 1.48 C 544.91 -0.19 550.30 4.09 549.27 9.00 C 549.01 14.07 542.29 16.77 538.42 13.65 C 533.96 10.72 535.16 2.95 540.30 1.48 Z" />
<path fill="#2ecc71" d=" M 19.19 32.22 C 27.86 26.50 38.77 24.80 48.90 26.62 C 60.47 28.81 70.78 36.57 76.25 46.97 C 82.23 57.86 82.47 71.68 76.88 82.77 C 70.06 96.66 54.77 106.60 39.09 105.30 C 28.53 104.49 19.22 98.34 12.02 90.92 C 11.97 103.29 12.02 115.66 12.01 128.03 C 12.01 130.35 11.76 133.20 9.48 134.47 C 6.39 136.90 1.05 134.01 1.52 130.05 C 1.46 108.35 1.55 86.65 1.48 64.95 C 1.17 51.94 8.18 39.11 19.19 32.22 Z" />
<path fill="#2ecc71" d=" M 93.99 41.01 C 102.50 30.48 116.57 24.77 130.02 26.18 C 149.57 28.55 165.80 47.11 164.73 66.91 C 164.34 69.49 161.48 70.80 159.09 70.72 C 138.06 70.83 117.02 70.65 95.99 70.80 C 98.06 81.17 105.76 90.21 115.89 93.44 C 126.12 97.05 137.84 93.98 145.63 86.61 C 148.85 82.96 155.46 86.21 154.48 91.01 C 153.13 95.62 148.50 98.31 144.70 100.82 C 128.44 109.13 106.46 105.69 94.55 91.47 C 82.49 77.60 82.25 55.16 93.99 41.01 Z" />
<path fill="#2ecc71" d=" M 201.45 26.63 C 205.22 25.78 209.17 25.02 213.02 25.76 C 217.46 26.82 217.73 33.91 213.47 35.41 C 209.88 36.32 206.05 36.03 202.54 37.32 C 191.12 40.92 182.41 51.85 182.11 63.92 C 181.76 76.31 182.23 88.72 181.91 101.11 C 181.76 105.00 176.44 106.80 173.59 104.41 C 171.22 102.76 171.54 99.56 171.46 97.03 C 171.63 85.71 171.31 74.38 171.63 63.07 C 172.22 46.12 185.04 30.66 201.45 26.63 Z" />
<path fill="#2ecc71" d=" M 242.48 26.69 C 252.99 24.02 264.25 26.82 272.95 33.08 C 275.91 35.27 279.92 37.65 279.76 41.86 C 279.04 45.44 274.18 47.02 271.49 44.53 C 265.47 39.53 257.96 35.85 249.97 36.21 C 235.06 36.06 221.70 49.13 221.26 63.98 C 220.15 77.78 230.44 91.21 243.88 94.18 C 251.46 96.00 259.74 94.52 266.25 90.26 C 268.42 88.86 270.25 86.99 272.44 85.63 C 275.51 83.75 280.09 86.39 279.80 90.04 C 280.07 93.22 277.21 95.24 275.05 97.03 C 260.18 108.68 237.08 107.78 223.27 94.83 C 209.38 82.55 206.65 60.07 216.68 44.60 C 222.34 35.41 232.01 29.02 242.48 26.69 Z" />
<path fill="#2ecc71" d=" M 290.40 26.36 C 293.41 24.10 298.73 26.03 298.67 30.07 C 298.92 42.36 298.58 54.67 298.81 66.96 C 299.16 80.34 309.94 92.46 323.13 94.54 C 333.42 96.41 344.34 91.96 350.73 83.76 C 354.68 78.74 357.02 72.43 357.00 66.01 C 357.01 55.02 357.01 44.03 356.97 33.04 C 357.06 30.86 356.75 28.19 358.70 26.69 C 361.60 24.02 367.39 25.75 367.42 29.99 C 367.64 42.00 367.42 54.01 367.51 66.02 C 367.64 78.99 360.74 91.75 349.90 98.83 C 342.38 103.89 333.07 106.17 324.07 105.27 C 312.21 104.20 300.98 97.42 294.60 87.36 C 290.48 81.06 288.29 73.56 288.26 66.05 C 288.22 55.03 288.29 44.01 288.22 32.99 C 288.25 30.66 288.08 27.74 290.40 26.36 Z" />
<path fill="#2ecc71" d=" M 393.15 26.26 C 397.35 25.39 401.66 25.82 405.92 25.75 C 414.95 25.84 423.99 25.58 433.02 25.84 C 436.93 26.04 438.61 31.41 436.17 34.20 C 434.80 36.23 432.18 36.27 430.00 36.28 C 419.66 36.25 409.31 36.24 398.98 36.25 C 392.17 35.99 385.66 42.13 385.96 49.02 C 385.84 55.48 391.69 61.22 398.07 61.41 C 405.06 61.71 412.06 61.33 419.05 61.52 C 428.37 61.79 436.91 68.94 439.01 78.00 C 441.16 85.89 438.31 94.78 432.08 100.05 C 427.73 103.99 421.78 105.67 415.99 105.52 C 404.70 105.41 393.40 105.65 382.11 105.41 C 378.49 105.64 375.97 101.44 377.32 98.23 C 377.96 96.28 379.87 94.92 381.95 95.05 C 394.00 94.83 406.06 95.20 418.11 94.91 C 424.18 94.74 429.50 89.06 429.20 82.99 C 428.99 77.25 423.92 71.96 418.08 72.03 C 411.36 71.84 404.64 72.17 397.93 71.95 C 390.28 71.81 382.78 67.63 378.85 61.04 C 374.30 53.82 374.31 44.05 378.76 36.79 C 381.84 31.49 387.25 27.75 393.15 26.26 Z" />
<path fill="#2ecc71" d=" M 463.40 26.55 C 467.48 25.40 471.77 25.78 475.97 25.74 C 485.33 25.83 494.69 25.62 504.05 25.81 C 508.22 25.84 509.97 31.55 507.38 34.44 C 505.82 36.29 503.21 36.23 501.01 36.28 C 490.66 36.26 480.32 36.23 469.98 36.25 C 463.25 36.15 457.05 42.25 457.25 49.02 C 457.21 55.52 463.01 61.25 469.46 61.43 C 476.30 61.68 483.15 61.37 489.99 61.50 C 497.74 61.58 505.15 66.41 508.57 73.33 C 512.11 79.98 511.80 88.45 507.85 94.85 C 503.99 101.38 496.54 105.45 488.99 105.47 C 477.97 105.56 466.96 105.45 455.94 105.53 C 453.50 105.51 450.38 105.50 449.10 103.00 C 447.06 100.01 449.08 95.09 452.88 95.07 C 464.94 94.82 477.01 95.18 489.07 94.93 C 494.67 94.97 499.68 90.39 500.43 84.90 C 501.43 78.42 495.69 71.76 489.09 72.01 C 481.66 71.78 474.21 72.39 466.81 71.72 C 456.35 70.63 447.56 61.40 446.83 50.93 C 445.65 40.20 452.96 29.37 463.40 26.55 Z" />
<path fill="#4d4d4d" d=" M 539.36 26.51 C 542.68 24.18 548.16 26.66 547.71 30.98 C 547.77 53.99 547.77 77.02 547.71 100.03 C 548.22 104.58 541.98 107.33 538.88 104.07 C 537.22 102.89 537.23 100.78 537.23 98.96 C 537.27 76.63 537.27 54.30 537.23 31.98 C 537.10 29.95 537.57 27.72 539.36 26.51 Z" />
<path fill="#4d4d4d" d=" M 589.33 26.55 C 609.96 22.42 631.22 38.42 634.71 58.79 C 636.51 68.71 634.34 79.24 628.63 87.55 C 622.08 97.47 610.89 104.15 599.02 105.03 C 586.01 106.35 572.44 100.96 564.20 90.75 C 554.12 78.60 552.71 60.25 560.47 46.56 C 566.27 35.85 577.45 28.64 589.33 26.55 Z" />
<path fill="#ffffff" d=" M 38.23 36.32 C 53.91 34.37 69.33 47.31 70.29 63.04 C 72.04 78.80 58.95 94.13 43.11 94.87 C 26.93 96.46 12.07 82.05 11.97 66.06 C 11.21 51.31 23.57 37.50 38.23 36.32 Z" />
<path fill="#ffffff" d=" M 112.35 39.42 C 124.10 33.24 139.53 37.07 147.74 47.29 C 150.88 51.00 152.71 55.57 154.02 60.19 C 134.75 60.32 115.47 60.23 96.20 60.24 C 98.13 51.33 103.94 43.24 112.35 39.42 Z" />
<path fill="#ffffff" d=" M 587.39 37.52 C 599.92 33.80 614.45 39.62 620.82 51.05 C 626.45 60.40 626.05 72.90 619.85 81.88 C 612.74 92.78 597.93 97.84 585.70 93.27 C 575.01 89.61 566.94 79.36 566.13 68.06 C 564.83 54.51 574.28 41.06 587.39 37.52 Z" />
<path fill="#4d4d4d" d=" M 519.28 92.32 C 523.81 89.97 529.93 93.81 529.25 99.01 C 529.20 104.35 522.06 107.56 518.08 103.97 C 514.07 101.15 514.80 94.27 519.28 92.32 Z" />
</svg>
